PathFileType	4	(X/Y/Z)	C:/Users/beibeiliu/ov580/test_trc\sequence.27_training_dense_right.trc
DataRate	CameraRate	NumFrames	NumMarkers	Units	OrigDataRate	OrigDataStartFrame	OrigNumFrames
120	120	8	19	mm	120	207	331
Frame#	Time	ThumbCMC			ThumbMCP			ThumbIP			ThumbTip			IndexMCP			IndexPIP			IndexTip			MiddleMCP			MiddlePIP			MiddleTip			RingMCP			RingPIP			RingTip			PinkyMCP			PinkyPIP			PinkyTip			BackHand1			BackHand2			BackHand3	
		X0	Y0	Z0	X1	Y1	Z1	X2	Y2	Z2	X3	Y3	Z3	X4	Y4	Z4	X5	Y5	Z5	X6	Y6	Z6	X7	Y7	Z7	X8	Y8	Z8	X9	Y9	Z9	X10	Y10	Z10	X11	Y11	Z11	X12	Y12	Z12	X13	Y13	Z13	X14	Y14	Z14	X15	Y15	Z15	X16	Y16	Z16	X17	Y17	Z17	X18	Y18	Z18	
206	1.71667	207.023	44.2896	43.6075	196.335	34.5555	11.7726	200.815	25.9332	-12.167	208.862	14.2297	-27.2069	239.276	60.0086	-10.2649	231.061	57.5652	-32.256	221.261	48.3586	-52.9383	258.271	47.2196	-6.99459	261.318	46.9293	-33.8726	256.722	45.6362	-62.294	260.053	26.4976	-6.37845	246.612	19.8898	-33.5706	223.578	10.5349	-41.8812	259.284	9.40971	2.13092	246.376	6.76932	-20.2559	228.028	2.4845	-28.3393	257.081	28.7431	41.1555	250.6	21.5497	64.1625	240.958	45.8583	51.1874	
207	1.725	209.073	45.764	45.6494	198.979	35.346	13.949	197.564	27.46	-10.6384	202.467	13.4672	-25.4763	238.869	58.6215	-13.0139	231.895	52.5716	-35.4495	218.477	45.5024	-51.6476	257.544	42.6829	-15.872	257.884	40.44	-37.5571	249.218	37.5648	-66.3142	256.332	20.9895	-8.08399	239.048	13.694	-33.9756	218.416	7.96312	-37.4468	256.204	5.28603	2.29778	244.635	-2.04059	-21.1544	225.526	-0.0771971	-29.736	259.008	25.4825	39.6695	252.964	19.6804	67.0814	244.62	46.4146	52.2467	
208	1.73333	211.859	49.3806	43.553	194.934	39.6795	16.5315	195.56	28.2297	-7.70796	197.714	12.9213	-26.1682	237.629	56.2756	-14.465	227.811	52.3008	-34.9681	209.456	41.3816	-56.1384	253.471	38.6709	-19.1824	252.135	32.6615	-42.2464	241.257	27.254	-66.6805	251.075	18.3404	-11.7936	235.461	12.2694	-31.0506	209.152	4.80165	-33.826	253.276	0.517402	-3.36989	245.545	-6.99192	-19.5596	226.756	-4.71883	-32.8416	256.749	23.5744	36.137	254.955	22.5978	60.8988	248.469	45.5734	44.1824	
209	1.74167	212.927	53.2437	44.0759	195.052	41.3483	17.0063	191.056	29.9347	-2.19049	189.64	12.7935	-20.8455	234.436	52.5319	-15.2909	221.015	45.9458	-37.608	205.515	39.0195	-52.1863	248.268	30.9047	-19.1576	242.585	25.5358	-45.2508	227.329	22.6783	-67.7363	244.762	12.9726	-14.2396	221.066	3.58826	-32.4175	195.261	1.38598	-28.1177	248.787	-3.59696	-2.35423	238.674	-9.88155	-22.8187	224.611	-11.9279	-35.4626	257.467	17.3537	31.6451	254.84	18.9052	58.7669	249.756	42.3329	41.7027	
210	1.75	219.21	51.6371	44.8035	196.757	42.0444	18.8483	188.259	29.1422	0.417759	181.333	16.4968	-10.9955	229.407	49.5155	-20.4419	216.532	43.5204	-36.9826	193.437	39.2034	-53.0728	241.444	26.0808	-25.9671	231.19	25.8629	-47.4615	216.206	17.7378	-65.7053	238.817	8.48376	-13.1933	213.761	4.88159	-29.7558	189.401	5.44802	-25.2743	243.53	-7.72447	2.097	233.591	-13.5672	-19.2936	218.723	-15.9716	-33.8195	254.44	19.1142	30.7652	257.61	21.1297	58.622	251.907	44.1057	40.2895	
211	1.75833	219.921	57.0123	41.8312	192.786	50.0011	23.2019	181.747	35.36	3.37586	174.236	17.2291	-9.06981	225.688	46.9615	-22.9251	210.434	43.364	-38.3503	187.347	38.8641	-51.117	236.562	26.0608	-23.7695	223.627	20.9172	-44.7181	205.105	15.3564	-63.6747	229.874	7.5195	-16.3875	205.907	0.559817	-27.7217	181.636	3.59449	-20.0581	236.712	-11.0886	-0.425759	228.288	-14.6004	-15.2916	209.915	-20.2891	-32.5229	254.187	16.9397	26.3	256.641	17.1417	55.7578	254.742	41.041	34.8633	
212	1.76667	224.552	57.9227	38.9738	198.45	49.7349	24.6659	181.272	39.2334	6.31166	172.238	19.2018	-5.13064	226.23	44.9264	-23.3531	209.872	42.1965	-36.1171	186.299	39.6858	-49.7568	231.45	20.4035	-27.1773	217.823	19.9309	-43.5529	197.264	13.138	-60.5276	224.246	0.454859	-15.8457	199.063	3.53239	-25.387	175.928	8.59571	-16.9313	229.726	-14.1053	-0.418658	217.701	-18.138	-16.6338	199.81	-19.9676	-28.6121	254.118	12.8669	26.9335	257.224	17.773	50.8798	256.16	39.9848	33.2249	
213	1.775	230.305	56.8566	40.2643	199.203	52.8996	21.1474	183.121	39.6203	7.68373	172.914	19.3454	-2.28367	228.103	42.6699	-20.8493	208.958	40.9987	-36.4161	184.496	40.2644	-49.101	229.462	18.8515	-23.1515	212.082	16.3908	-43.5792	186.459	11.0629	-58.7297	220.214	4.3013	-14.8151	196.134	4.29162	-21.739	171.324	16.656	-13.283	224.605	-12.5444	2.59796	208.771	-17.5992	-12.589	193.378	-13.0956	-24.4532	253.303	8.88577	29.2177	259.122	13.164	53.9575	259.316	37.8485	35.0702	
